<svg width="181" height="181" viewBox="0 0 181 181" fill="none" xmlns="http://www.w3.org/2000/svg">
<path d="M75.8029 117.682L52.919 114.938L99.1774 75.9925L68.6655 72.3347L70.3801 58.0323L126.954 64.8143L119.982 122.978L104.09 121.073L107.824 89.925L75.8029 117.682Z" stroke="#CBFD7B" stroke-width="2"/>
<path d="M159.101 105.004L160.317 98.8976L170.834 100.991L169.662 106.877C169.527 107.558 169.313 108.113 169.021 108.545C168.726 108.987 168.36 109.294 167.923 109.469C167.483 109.653 166.987 109.69 166.432 109.58C165.814 109.457 165.328 109.17 164.971 108.718C164.613 108.277 164.467 107.644 164.533 106.819L164.423 106.798C164.14 107.677 163.724 108.29 163.176 108.638C162.638 108.988 162.024 109.094 161.334 108.957C160.737 108.838 160.245 108.604 159.858 108.255C159.47 107.906 159.211 107.457 159.081 106.909C158.951 106.361 158.958 105.726 159.101 105.004ZM164.692 101.514L161.505 100.88L160.662 105.119C160.537 105.746 160.569 106.237 160.76 106.591C160.959 106.957 161.341 107.196 161.907 107.308C162.461 107.419 162.89 107.341 163.193 107.075C163.505 106.821 163.723 106.381 163.848 105.753L164.692 101.514ZM168.977 102.367L166.089 101.793L165.298 105.764C165.18 106.36 165.206 106.828 165.378 107.167C165.56 107.508 165.898 107.727 166.389 107.825C166.881 107.923 167.27 107.854 167.557 107.617C167.854 107.382 168.061 106.972 168.177 106.386L168.977 102.367Z" fill="#CBFD7B"/>
<path d="M157.412 111.729L158.016 110.11L168.063 113.861L166.114 119.079C165.831 119.838 165.471 120.45 165.036 120.914C164.597 121.388 164.104 121.688 163.555 121.814C163.004 121.949 162.413 121.9 161.783 121.664C161.223 121.455 160.788 121.156 160.478 120.767C160.164 120.388 159.976 119.93 159.914 119.395C159.848 118.869 159.913 118.284 160.108 117.639L160.003 117.6C159.758 117.952 159.481 118.191 159.173 118.315C158.871 118.453 158.526 118.552 158.139 118.612L154.618 119.211L155.312 117.352L158.685 116.783C159.011 116.734 159.288 116.649 159.515 116.529C159.748 116.423 159.948 116.253 160.115 116.019C160.292 115.789 160.461 115.459 160.622 115.029L161.31 113.185L157.412 111.729ZM166.004 114.937L162.555 113.649L161.217 117.233C160.967 117.903 160.908 118.456 161.041 118.893C161.174 119.33 161.556 119.666 162.185 119.901C162.795 120.129 163.298 120.123 163.695 119.884C164.092 119.645 164.415 119.19 164.665 118.521L166.004 114.937Z" fill="#CBFD7B"/>
<path d="M153.075 122.273L153.927 120.769L163.256 126.058L162.404 127.561L153.075 122.273ZM149.696 128.232L153.667 121.229L155.017 121.994L151.047 128.998L149.696 128.232ZM153.839 130.305L157.691 123.51L159.027 124.268L155.175 131.062L153.839 130.305ZM157.675 132.755L161.645 125.752L162.996 126.517L159.025 133.521L157.675 132.755Z" fill="#CBFD7B"/>
<path d="M147.918 130.992L149.129 129.502L154.434 139.978L152.9 141.866L141.559 138.818L142.791 137.303L150.821 139.476L152.395 139.95L152.475 139.851L151.689 138.407L147.918 130.992ZM145.285 138.649L149.797 133.096L151.002 134.075L146.49 139.628L145.285 138.649Z" fill="#CBFD7B"/>
<path d="M132.957 146.507L134.496 145.155L139.774 146.484L142.6 144.003L143.699 145.253L140.897 147.714L141.56 153.224L140.02 154.575L139.339 148.123L132.957 146.507ZM139.283 140.952L140.582 139.811L147.657 147.869L146.358 149.01L139.283 140.952Z" fill="#CBFD7B"/>
<path d="M130.262 148.248L131.677 147.256L137.834 156.035L136.419 157.028L130.262 148.248Z" fill="#CBFD7B"/>
<path d="M127.014 150.488L128.535 149.667L133.629 159.104L131.995 159.986L124.79 156.746L122.614 155.646L122.501 155.707L123.492 157.373L126.502 162.951L124.981 163.772L119.887 154.335L121.521 153.453L128.747 156.665L130.828 157.688L130.94 157.627L130.002 156.024L127.014 150.488Z" fill="#CBFD7B"/>
<path d="M113.282 156.711C114.274 156.38 115.215 156.302 116.106 156.478C117 156.663 117.785 157.076 118.46 157.717C119.138 158.369 119.654 159.226 120.009 160.288C120.363 161.351 120.447 162.347 120.262 163.275C120.08 164.213 119.655 165.029 118.987 165.724C118.322 166.43 117.448 166.963 116.365 167.324C115.403 167.645 114.506 167.77 113.672 167.699C112.832 167.641 112.11 167.399 111.506 166.97C110.902 166.542 110.468 165.933 110.205 165.143L110.165 165.022L111.971 164.419L112.012 164.541C112.255 165.269 112.697 165.735 113.338 165.937C113.983 166.15 114.831 166.081 115.884 165.73C116.704 165.456 117.338 165.099 117.787 164.657C118.229 164.228 118.492 163.702 118.576 163.077C118.661 162.453 118.561 161.716 118.278 160.866C117.997 160.025 117.64 159.374 117.204 158.912C116.762 158.463 116.239 158.193 115.635 158.102C115.025 158.025 114.319 158.119 113.52 158.386C112.71 158.656 112.082 158.949 111.637 159.267C111.195 159.594 110.922 159.972 110.817 160.4C110.702 160.832 110.74 161.332 110.929 161.899L111.04 162.233L109.4 162.729L109.319 162.486L110.119 160.38L110.362 160.299C110.338 159.756 110.434 159.252 110.65 158.786C110.856 158.324 111.181 157.917 111.627 157.566C112.062 157.218 112.614 156.933 113.282 156.711ZM108.033 158.629L109.521 158.133L110.382 160.714L110.589 160.881L111.323 163.083L109.699 163.625L108.033 158.629ZM109.349 162.577L114.74 160.78L115.155 162.025L109.765 163.822L109.349 162.577Z" fill="#CBFD7B"/>
<path d="M96.3785 160.486L100.686 160.138L100.811 161.685L96.5035 162.033C95.6739 162.1 95.0084 162.277 94.5071 162.564C93.9959 162.862 93.635 163.298 93.4245 163.872C93.2148 164.456 93.1469 165.206 93.2208 166.12C93.2955 167.046 93.4829 167.775 93.7828 168.307C94.0828 168.839 94.5085 169.206 95.0601 169.408C95.6018 169.621 96.2875 169.694 97.1171 169.627L101.424 169.279L101.55 170.827L97.2421 171.175C96.1254 171.265 95.1505 171.124 94.3176 170.753C93.475 170.393 92.8034 169.831 92.3029 169.069C91.7917 168.307 91.4915 167.373 91.4021 166.267C91.3127 165.161 91.4591 164.191 91.8414 163.358C92.213 162.525 92.7853 161.857 93.5584 161.356C94.3217 160.866 95.2617 160.576 96.3785 160.486ZM99.5372 160.231L101.244 160.093L102.108 170.782L100.401 170.92L99.5372 160.231Z" fill="#CBFD7B"/>
<path d="M84.1972 160.323C85.3128 160.426 86.2697 160.74 87.0677 161.264C87.8542 161.798 88.4433 162.495 88.8351 163.356C89.2152 164.227 89.3537 165.221 89.2504 166.336C89.1472 167.452 88.8293 168.398 88.2967 169.174C87.7525 169.959 87.0454 170.536 86.1753 170.906C85.2937 171.285 84.295 171.423 83.1794 171.32C82.0426 171.215 81.0809 170.895 80.2944 170.362C79.507 169.839 78.9232 169.142 78.5431 168.271C78.1513 167.409 78.007 166.421 78.1103 165.305C78.2135 164.19 78.5373 163.239 79.0815 162.454C79.614 161.678 80.3159 161.1 81.1869 160.72C82.0569 160.35 83.0604 160.218 84.1972 160.323ZM84.0438 161.981C83.2044 161.903 82.4962 161.971 81.9192 162.186C81.3305 162.41 80.8719 162.791 80.5436 163.328C80.2142 163.877 80.0087 164.592 79.9271 165.473C79.8445 166.366 79.9153 167.107 80.1394 167.695C80.3635 168.284 80.7449 168.737 81.2834 169.055C81.8103 169.382 82.4935 169.585 83.3328 169.662C84.1722 169.74 84.8862 169.667 85.4749 169.443C86.052 169.228 86.5047 168.852 86.8331 168.315C87.1508 167.776 87.351 167.061 87.4336 166.168C87.5152 165.286 87.4498 164.546 87.2372 163.948C87.0131 163.359 86.6376 162.901 86.1107 162.574C85.5721 162.256 84.8832 162.058 84.0438 161.981Z" fill="#CBFD7B"/>
<path d="M72.1623 158.474L74.5905 159.236L74.084 170.316L72.2514 169.741L72.6179 162.744L72.84 160.431L72.7179 160.393L71.4878 162.389L67.395 168.218L64.9974 167.466L64.8294 160.301L64.9293 157.95L64.8071 157.912L63.6993 159.946L60.141 165.942L58.3389 165.377L64.1142 155.95L66.5423 156.711L66.7358 163.314L66.6601 166.175L66.7976 166.219L68.3545 163.822L72.1623 158.474Z" fill="#CBFD7B"/>
<path d="M59.2255 153.689L60.7356 154.53L55.517 163.898L53.8951 162.994L52.7536 155.177L52.5108 152.751L52.3989 152.689L51.5264 154.42L48.442 159.957L46.9319 159.115L52.1505 149.747L53.7724 150.651L54.9496 158.47L55.205 160.774L55.3169 160.837L56.1645 159.184L59.2255 153.689Z" fill="#CBFD7B"/>
<path d="M41.964 141.629L46.558 145.831L39.3201 153.744L34.8915 149.692C34.3797 149.224 34.0151 148.753 33.7976 148.28C33.5723 147.799 33.4984 147.326 33.5759 146.862C33.6455 146.391 33.8712 145.947 34.2529 145.529C34.6778 145.065 35.1757 144.797 35.7465 144.726C36.3095 144.648 36.9265 144.851 37.5976 145.335L37.6732 145.252C37.0681 144.554 36.7587 143.881 36.7449 143.232C36.7239 142.591 36.9511 142.011 37.4264 141.491C37.8369 141.042 38.2918 140.742 38.7911 140.592C39.2904 140.441 39.8082 140.452 40.3446 140.625C40.881 140.797 41.4208 141.132 41.964 141.629ZM42.0535 148.218L44.2465 145.821L41.0579 142.904C40.5855 142.472 40.1487 142.246 39.7475 142.226C39.3313 142.207 38.9287 142.41 38.5398 142.835C38.1581 143.252 38.0025 143.659 38.0731 144.056C38.1286 144.454 38.3925 144.869 38.8649 145.301L42.0535 148.218ZM39.1044 151.442L41.0921 149.269L38.1042 146.536C37.6554 146.125 37.2416 145.906 36.8627 145.878C36.4766 145.857 36.1143 146.032 35.7758 146.402C35.4373 146.772 35.2952 147.141 35.3493 147.508C35.3962 147.884 35.6401 148.273 36.081 148.677L39.1044 151.442Z" fill="#CBFD7B"/>
<path d="M37.4592 137.211L38.635 138.73L27.226 141.51L25.7367 139.587L31.2863 129.238L32.4817 130.782L28.5377 138.106L27.7175 139.531L27.7959 139.632L29.3803 139.195L37.4592 137.211ZM30.6029 132.904L34.9828 138.561L33.7552 139.512L29.3753 133.855L30.6029 132.904Z" fill="#CBFD7B"/>
<path d="M29.7326 126.564L30.5481 128.088L21.0929 133.147L18.4652 128.236C18.0826 127.521 17.861 126.847 17.8005 126.214C17.735 125.571 17.8363 125.003 18.1042 124.509C18.3672 124.005 18.795 123.594 19.3877 123.277C19.9146 122.995 20.4266 122.867 20.9237 122.891C21.4158 122.906 21.8833 123.067 22.3262 123.375C22.7641 123.673 23.1605 124.108 23.5152 124.681L23.614 124.628C23.5118 124.211 23.516 123.846 23.6267 123.532C23.7229 123.215 23.8762 122.89 24.0867 122.56L25.9646 119.522L26.9009 121.272L25.0981 124.179C24.9196 124.456 24.8004 124.719 24.7405 124.969C24.6661 125.215 24.6615 125.478 24.7265 125.757C24.7821 126.042 24.9182 126.387 25.1346 126.792L26.0634 128.527L29.7326 126.564ZM21.6463 130.891L24.8921 129.154L23.0874 125.781C22.7501 125.151 22.3736 124.741 21.9578 124.552C21.5421 124.363 21.0378 124.427 20.4451 124.744C19.8712 125.052 19.5428 125.433 19.46 125.889C19.3771 126.345 19.5043 126.888 19.8416 127.518L21.6463 130.891Z" fill="#CBFD7B"/>
<path d="M24.6844 116.387L25.2433 118.023L15.0957 121.49L13.2948 116.22C13.0326 115.452 12.9228 114.751 12.9652 114.117C13.0043 113.472 13.1959 112.927 13.5401 112.483C13.8809 112.028 14.3693 111.692 15.0055 111.474C15.5709 111.281 16.097 111.237 16.5836 111.341C17.0669 111.435 17.5022 111.67 17.8897 112.045C18.2738 112.41 18.5946 112.904 18.8524 113.526L18.9584 113.49C18.9248 113.061 18.9879 112.702 19.1477 112.41C19.2939 112.112 19.4976 111.817 19.7586 111.525L22.1021 108.83L22.7438 110.708L20.4956 113.286C20.2747 113.53 20.1145 113.771 20.0151 114.008C19.9021 114.238 19.8551 114.497 19.8741 114.784C19.883 115.074 19.9617 115.436 20.11 115.87L20.7466 117.733L24.6844 116.387ZM16.006 119.353L19.4895 118.162L18.2526 114.543C18.0215 113.866 17.716 113.401 17.3362 113.147C16.9563 112.894 16.4484 112.876 15.8122 113.093C15.1963 113.304 14.8107 113.627 14.6554 114.063C14.5001 114.5 14.538 115.056 14.7691 115.733L16.006 119.353Z" fill="#CBFD7B"/>
<path d="M21.4033 105.394L21.782 107.081L11.3189 109.43L10.9402 107.744L21.4033 105.394Z" fill="#CBFD7B"/>
<path d="M20.5753 101.405L20.767 103.123L10.1095 104.313L9.91782 102.595L20.5753 101.405ZM19.8156 94.5973L20.7084 102.598L19.1655 102.771L18.2727 94.7695L19.8156 94.5973ZM15.2452 95.3489L16.1114 103.111L14.5843 103.282L13.7182 95.5193L15.2452 95.3489ZM10.7011 95.6144L11.5939 103.615L10.0509 103.788L9.15814 95.7865L10.7011 95.6144Z" fill="#CBFD7B"/>
<path d="M19.6987 90.9576L19.6258 92.6847L8.91173 92.2326L9.14651 86.6677C9.18069 85.8575 9.33275 85.1644 9.60268 84.5884C9.87307 84.0017 10.2493 83.5637 10.7314 83.2743C11.214 82.9743 11.7911 82.8385 12.4627 82.8668C13.0597 82.892 13.5661 83.0415 13.9817 83.3154C14.3978 83.5785 14.7183 83.9552 14.9433 84.4452C15.1687 84.9247 15.2885 85.5011 15.3028 86.1745L15.4148 86.1792C15.5389 85.768 15.7283 85.4556 15.983 85.242C16.2274 85.0174 16.5242 84.8163 16.8735 84.6388L20.0353 82.978L19.9517 84.9609L16.9211 86.5472C16.6265 86.6949 16.3899 86.8612 16.2112 87.0459C16.0224 87.2195 15.8848 87.4433 15.7984 87.7173C15.7015 87.9909 15.6433 88.3569 15.624 88.8153L15.541 90.7822L19.6987 90.9576ZM10.5357 90.571L14.2137 90.7262L14.3749 86.9043C14.4051 86.19 14.2892 85.6458 14.0273 85.2717C13.7654 84.8975 13.2987 84.6963 12.627 84.6679C11.9767 84.6405 11.5 84.8019 11.1969 85.1523C10.8937 85.5026 10.7271 86.0349 10.697 86.7491L10.5357 90.571Z" fill="#CBFD7B"/>
<path d="M21.33 76.4421C21.1159 77.4765 20.789 78.3187 20.3493 78.9687C19.9118 79.6081 19.3898 80.0503 18.7834 80.2953C18.1665 80.538 17.4923 80.5837 16.7609 80.4323L16.6669 80.4128L17.0174 78.7201L17.2681 78.772C17.6861 78.8586 18.0556 78.837 18.3766 78.7073C18.6872 78.5755 18.9611 78.3053 19.1983 77.8968C19.4249 77.486 19.6183 76.8941 19.7784 76.1209C19.9169 75.4522 19.9802 74.9095 19.9684 74.493C19.9461 74.0743 19.8478 73.7598 19.6734 73.5493C19.4907 73.3263 19.2375 73.1812 18.9136 73.1142C18.4538 73.019 18.0892 73.096 17.8196 73.3453C17.5501 73.5946 17.2845 74.0354 17.0228 74.6677L16.0675 77.1505C15.8314 77.7118 15.556 78.1996 15.2414 78.6139C14.9164 79.0261 14.5387 79.3238 14.1085 79.5072C13.67 79.6779 13.1634 79.7038 12.5887 79.5848C12.2125 79.5069 11.8589 79.3465 11.5278 79.1036C11.1967 78.8607 10.9217 78.5314 10.7027 78.1155C10.4837 77.6997 10.349 77.1924 10.2986 76.5935C10.24 75.9821 10.2961 75.2636 10.467 74.4382C10.679 73.4142 11.0099 72.6055 11.4596 72.0122C11.9094 71.4188 12.4384 71.0216 13.0466 70.8207C13.6466 70.6071 14.2913 70.5717 14.9809 70.7145L15.075 70.7339L14.7278 72.411L14.524 72.3688C14.0956 72.2801 13.7209 72.3006 13.3998 72.4302C13.0683 72.5577 12.7903 72.8216 12.5658 73.2219C12.3308 73.62 12.1376 74.1847 11.9862 74.9162C11.8542 75.5535 11.7994 76.0815 11.8217 76.5002C11.8461 76.9085 11.9444 77.223 12.1166 77.4439C12.2784 77.6627 12.5212 77.8056 12.8451 77.8726C13.1377 77.9332 13.391 77.9203 13.605 77.8338C13.819 77.7474 14.0106 77.5854 14.1796 77.348C14.3382 77.1084 14.5066 76.7946 14.685 76.4066L15.6528 73.9428C15.9232 73.2687 16.2313 72.7277 16.5773 72.3199C16.9254 71.9016 17.3165 71.6176 17.7507 71.4677C18.1849 71.3179 18.658 71.296 19.17 71.402C19.7029 71.5123 20.173 71.7677 20.5805 72.168C20.9879 72.5684 21.2709 73.1228 21.4293 73.8312C21.5773 74.5374 21.5442 75.4077 21.33 76.4421Z" fill="#CBFD7B"/>
<path d="M24.8248 63.7877L24.0953 65.3195L22.3345 63.4705L21.4123 65.4068L20.0251 64.7462L21.2156 62.2463L19.2503 60.1935L18.1562 62.4912L16.7689 61.8306L18.1246 58.9838L16.2027 56.9517L16.9321 55.42L18.854 57.452L20.1065 54.8221L18.1846 52.79L18.914 51.2582L20.8359 53.2903L21.8062 51.2528L23.1934 51.9134L21.9548 54.5145L23.92 56.5672L25.0555 54.1829L26.4427 54.8435L25.0458 57.7769L26.7998 59.6404L26.0703 61.1722L24.3163 59.3087L23.0639 61.9387L24.8248 63.7877ZM19.9302 58.6914L21.9395 60.8005L23.2401 58.0694L21.2308 55.9602L19.9302 58.6914Z" fill="#CBFD7B"/>
<path d="M36.5421 44.7035L32.5631 49.4923L24.3151 42.639L28.1509 38.0226C28.5942 37.4891 29.0472 37.1025 29.51 36.8628C29.9796 36.6148 30.4481 36.5185 30.9154 36.5739C31.3895 36.621 31.8441 36.8253 32.2791 37.1867C32.7633 37.5891 33.0543 38.0736 33.1521 38.6405C33.2567 39.1991 33.0834 39.825 32.6322 40.5183L32.7184 40.59C33.3869 39.9523 34.0449 39.6112 34.6924 39.5666C35.3317 39.5151 35.9222 39.7144 36.4639 40.1645C36.9316 40.5532 37.2526 40.9933 37.4269 41.4849C37.6011 41.9765 37.6148 42.4942 37.468 43.0382C37.3212 43.5822 37.0126 44.1373 36.5421 44.7035ZM29.9644 45.1064L32.4634 47.1829L35.2252 43.8591C35.6344 43.3667 35.8393 42.9196 35.8401 42.518C35.8395 42.1013 35.6177 41.7088 35.1745 41.3406C34.7395 40.9792 34.3254 40.8431 33.932 40.9325C33.5373 41.0068 33.1354 41.2902 32.7262 41.7826L29.9644 45.1064ZM26.6037 42.3139L28.8688 44.196L31.4567 41.0815C31.8454 40.6137 32.045 40.1899 32.0553 39.8101C32.0575 39.4235 31.8657 39.0699 31.48 38.7494C31.0943 38.4289 30.7191 38.3044 30.3544 38.376C29.9816 38.4407 29.6042 38.7029 29.2223 39.1625L26.6037 42.3139Z" fill="#CBFD7B"/>
<path d="M41.2369 39.5863L39.9339 40.7222L32.8874 32.6387L37.086 28.9787C37.6973 28.4459 38.3048 28.0791 38.9084 27.8785C39.5201 27.6708 40.0968 27.6423 40.6386 27.7929C41.1884 27.9364 41.6842 28.2616 42.1259 28.7683C42.5185 29.2187 42.7586 29.689 42.846 30.179C42.9414 30.662 42.8888 31.1537 42.6881 31.6542C42.4955 32.1477 42.1598 32.6314 41.6811 33.1053L41.7548 33.1898C42.1386 32.9967 42.4956 32.9191 42.8257 32.9569C43.1569 32.9796 43.5071 33.0565 43.8762 33.1877L47.2573 34.3383L45.7613 35.6424L42.5247 34.5357C42.2147 34.4237 41.9312 34.3665 41.6743 34.364C41.4183 34.3465 41.1613 34.4007 40.9031 34.5267C40.6379 34.6446 40.3323 34.8544 39.9865 35.1559L38.5025 36.4495L41.2369 39.5863ZM35.2106 32.6731L37.6295 35.4481L40.5131 32.9345C41.052 32.4647 41.367 32.0061 41.4582 31.5586C41.5494 31.1111 41.3741 30.6339 40.9324 30.1272C40.5047 29.6366 40.0594 29.4019 39.5967 29.4231C39.1339 29.4443 38.633 29.6898 38.0941 30.1595L35.2106 32.6731Z" fill="#CBFD7B"/>
<path d="M49.6904 32.6184L48.2298 33.5429L42.4947 24.4817L43.9553 23.5572L49.6904 32.6184ZM55.4788 28.9548L48.6761 33.2604L47.8458 31.9485L54.6485 27.6429L55.4788 28.9548ZM52.8021 25.1747L46.2023 29.3519L45.3806 28.0536L51.9804 23.8764L52.8021 25.1747ZM50.574 21.2055L43.7713 25.511L42.941 24.1992L49.7437 19.8936L50.574 21.2055Z" fill="#CBFD7B"/>
<path d="M58.2437 27.3574L56.4743 28.1045L56.7116 16.3639L58.9528 15.4176L67.5329 23.435L65.7341 24.1946L59.6655 18.5045L58.499 17.3466L58.3811 17.3964L58.3975 19.04L58.2437 27.3574ZM64.1642 21.8345L57.5732 24.6175L56.9693 23.1873L63.5602 20.4042L64.1642 21.8345Z" fill="#CBFD7B"/>
<path d="M78.824 20.6416L76.8285 21.1054L72.805 17.4397L69.1414 18.2913L68.7645 16.6699L72.397 15.8256L74.4161 10.6566L76.4116 10.1928L73.9631 16.201L78.824 20.6416ZM70.6238 22.5477L68.9401 22.939L66.5121 12.4939L68.1958 12.1025L70.6238 22.5477Z" fill="#CBFD7B"/>
<path d="M82.3411 20.3164L80.6239 20.5147L79.3941 9.86181L81.1113 9.66357L82.3411 20.3164Z" fill="#CBFD7B"/>
<path d="M86.2128 19.8856L84.4842 19.8858L84.4825 9.16223L86.3391 9.16192L91.1417 15.4353L92.5345 17.4357L92.6626 17.4357L92.5822 15.499L92.5812 9.1609L94.3098 9.16062L94.3115 19.8842L92.4549 19.8845L87.6203 13.6272L86.2755 11.7388L86.1475 11.7388L86.2118 13.5954L86.2128 19.8856Z" fill="#CBFD7B"/>
<path d="M101.246 20.9125C100.216 20.7322 99.3508 20.3532 98.6503 19.7756C97.9517 19.1875 97.4578 18.451 97.1685 17.5663C96.8811 16.671 96.8341 15.6716 97.0273 14.568C97.2205 13.4644 97.6192 12.5485 98.2234 11.8202C98.8294 11.0813 99.5914 10.5648 100.51 10.2706C101.429 9.96584 102.452 9.91193 103.576 10.1088C104.575 10.2837 105.424 10.6002 106.124 11.0585C106.836 11.5082 107.356 12.065 107.684 12.7291C108.011 13.3931 108.104 14.135 107.96 14.9548L107.938 15.081L106.062 14.7525L106.084 14.6263C106.216 13.8696 106.049 13.2499 105.581 12.7671C105.115 12.2739 104.335 11.9316 103.242 11.7402C102.391 11.5911 101.663 11.6045 101.058 11.7802C100.465 11.9473 99.9834 12.2854 99.6126 12.7946C99.2418 13.3038 98.9791 13.9998 98.8246 14.8827C98.6718 15.7551 98.6771 16.498 98.8405 17.1116C99.0163 17.7165 99.3482 18.2025 99.8364 18.5696C100.337 18.9281 101.002 19.18 101.833 19.3254C102.674 19.4726 103.365 19.5125 103.908 19.445C104.452 19.367 104.872 19.1643 105.168 18.8369C105.474 18.5114 105.679 18.0543 105.782 17.4657L105.843 17.1189L107.521 17.4616L107.477 17.7138L105.773 19.1866L105.521 19.1424C105.283 19.6317 104.959 20.0298 104.548 20.337C104.147 20.646 103.667 20.849 103.109 20.9462C102.561 21.0452 101.94 21.034 101.246 20.9125ZM106.776 21.7183L105.231 21.4477L105.7 18.7676L105.597 18.522L105.997 16.236L107.684 16.5314L106.776 21.7183ZM107.494 17.6192L101.897 16.6393L102.123 15.3465L107.72 16.3264L107.494 17.6192Z" fill="#CBFD7B"/>
<path d="M117.795 25.4894L113.839 23.75L114.464 22.3288L118.42 24.0682C119.182 24.4031 119.851 24.5635 120.429 24.5493C121.02 24.5296 121.545 24.3174 122.002 23.9125C122.464 23.4979 122.88 22.8706 123.25 22.0305C123.623 21.1807 123.804 20.4503 123.793 19.8393C123.782 19.2283 123.582 18.7031 123.192 18.2638C122.817 17.8189 122.248 17.429 121.486 17.094L117.53 15.3546L118.155 13.9334L122.111 15.6727C123.137 16.1237 123.928 16.7105 124.484 17.4331C125.055 18.1502 125.379 18.9631 125.458 19.8717C125.546 20.7847 125.366 21.7491 124.92 22.7649C124.473 23.7808 123.884 24.5648 123.151 25.117C122.429 25.6735 121.608 25.9888 120.69 26.0629C119.785 26.1315 118.82 25.9403 117.795 25.4894ZM114.894 24.2138L113.326 23.5245L117.642 13.7079L119.21 14.3972L114.894 24.2138Z" fill="#CBFD7B"/>
<path d="M128.593 31.4328C127.662 30.8093 126.971 30.0769 126.52 29.2355C126.084 28.3911 125.9 27.497 125.967 26.5531C126.049 25.6062 126.401 24.6674 127.025 23.7365C127.648 22.8056 128.379 22.1265 129.217 21.6991C130.071 21.2689 130.968 21.0991 131.909 21.1899C132.864 21.2778 133.808 21.6334 134.739 22.2569C135.687 22.8922 136.38 23.632 136.816 24.4764C137.258 25.3119 137.438 26.203 137.356 27.1499C137.289 28.0938 136.944 29.0312 136.32 29.9621C135.697 30.893 134.959 31.5735 134.105 32.0038C133.267 32.4311 132.374 32.6038 131.427 32.5219C130.487 32.4312 129.542 32.0681 128.593 31.4328ZM129.519 30.0497C130.22 30.5188 130.875 30.7969 131.484 30.884C132.108 30.9682 132.693 30.8526 133.238 30.5371C133.789 30.2127 134.311 29.6826 134.804 28.9467C135.303 28.202 135.595 27.5175 135.679 26.8933C135.763 26.269 135.644 25.6887 135.323 25.1524C135.016 24.6131 134.513 24.109 133.812 23.6399C133.112 23.1708 132.45 22.8942 131.825 22.81C131.216 22.7229 130.639 22.8371 130.093 23.1526C129.557 23.474 129.039 24.0071 128.541 24.7518C128.048 25.4877 127.752 26.1692 127.653 26.7964C127.569 27.4206 127.68 28.0024 127.987 28.5416C128.308 29.078 128.819 29.5807 129.519 30.0497Z" fill="#CBFD7B"/>
<path d="M138.296 38.7406L136.522 36.9163L142.234 27.4086L143.573 28.7854L139.925 34.7677L138.63 36.6965L138.719 36.7883L140.75 35.6167L147.122 32.434L148.874 34.2353L145.616 40.6191L144.411 42.6397L144.5 42.7315L146.442 41.4681L152.422 37.8838L153.739 39.2376L144.177 44.787L142.403 42.9628L145.371 37.0616L146.798 34.58L146.697 34.4767L144.188 35.8455L138.296 38.7406Z" fill="#CBFD7B"/>
<path d="M147.299 48.8782L146.364 47.4244L155.383 41.6235L156.388 43.185L153.708 50.6174L152.779 52.8708L152.848 52.9785L154.434 51.8636L159.764 48.435L160.699 49.8888L151.68 55.6897L150.676 54.1282L153.325 46.6775L154.186 44.5251L154.116 44.4174L152.59 45.4756L147.299 48.8782Z" fill="#CBFD7B"/>
<path d="M156.996 67.8873L154.94 62.0108L165.061 58.4683L167.044 64.1333C167.273 64.788 167.371 65.3754 167.339 65.8955C167.309 66.4258 167.151 66.877 166.863 67.2491C166.578 67.6313 166.169 67.9158 165.635 68.1026C165.041 68.3106 164.476 68.3106 163.94 68.1026C163.407 67.9047 162.959 67.4339 162.597 66.6901L162.492 66.7272C162.694 67.6285 162.648 68.3683 162.353 68.9463C162.068 69.5209 161.593 69.9245 160.928 70.1572C160.354 70.3581 159.811 70.4067 159.3 70.3029C158.789 70.1992 158.338 69.9444 157.947 69.5385C157.557 69.1327 157.24 68.5823 156.996 67.8873ZM160.037 62.041L156.971 63.1143L158.398 67.1932C158.61 67.7975 158.888 68.2033 159.232 68.4108C159.589 68.6248 160.04 68.6367 160.584 68.4463C161.117 68.2595 161.447 67.9745 161.573 67.5913C161.713 67.2146 161.677 66.7241 161.465 66.1199L160.037 62.041ZM164.162 60.5976L161.382 61.5704L162.72 65.3925C162.921 65.9665 163.181 66.3558 163.501 66.5602C163.832 66.7612 164.234 66.7788 164.707 66.6131C165.18 66.4474 165.48 66.1899 165.607 65.8404C165.743 65.4874 165.713 65.0289 165.515 64.4649L164.162 60.5976Z" fill="#CBFD7B"/>
<path d="M158.848 73.7069L158.527 71.8133L169.9 74.7377L170.307 77.1363L160.535 83.6482L160.208 81.7231L167.139 77.1218L168.533 76.2521L168.512 76.1258L166.908 75.7648L158.848 73.7069ZM162.865 80.7365L161.669 73.6829L163.199 73.4232L164.396 80.4768L162.865 80.7365Z" fill="#CBFD7B"/>
<path d="M160.66 86.9156L160.666 85.1871L171.39 85.2265L171.369 90.7964C171.366 91.6073 171.241 92.3057 170.993 92.8917C170.746 93.4883 170.386 93.9405 169.916 94.2482C169.445 94.5666 168.874 94.7245 168.202 94.7221C167.604 94.7199 167.092 94.5899 166.666 94.3323C166.241 94.0853 165.906 93.7213 165.662 93.2402C165.418 92.7698 165.276 92.1984 165.236 91.5261L165.124 91.5256C165.016 91.9414 164.839 92.2608 164.593 92.484C164.357 92.7179 164.068 92.9302 163.726 93.121L160.63 94.9023L160.638 92.9176L163.605 91.2159C163.894 91.0569 164.124 90.8817 164.295 90.6903C164.477 90.5096 164.606 90.2806 164.682 90.0035C164.768 89.7264 164.812 89.3584 164.814 88.8996L164.821 86.9309L160.66 86.9156ZM169.831 86.9494L166.149 86.9358L166.135 90.7611C166.133 91.476 166.269 92.0153 166.546 92.3792C166.822 92.743 167.296 92.9261 167.968 92.9286C168.619 92.931 169.089 92.7513 169.379 92.3896C169.668 92.0279 169.814 91.4895 169.817 90.7746L169.831 86.9494Z" fill="#CBFD7B"/>
</svg>
