<svg width="164" height="163" viewBox="0 0 164 163" fill="none" xmlns="http://www.w3.org/2000/svg">
<path d="M151.101 96.0039L152.317 89.8976L162.834 91.9908L161.662 97.8773C161.527 98.5576 161.313 99.1134 161.021 99.5447C160.726 99.9865 160.36 100.294 159.923 100.469C159.483 100.653 158.987 100.69 158.432 100.58C157.814 100.457 157.328 100.17 156.971 99.718C156.613 99.2768 156.467 98.6439 156.533 97.8194L156.423 97.7975C156.14 98.6767 155.724 99.2902 155.176 99.6381C154.638 99.9881 154.024 100.094 153.334 99.9568C152.737 99.8381 152.245 99.6042 151.858 99.2551C151.47 98.906 151.211 98.4574 151.081 97.9092C150.951 97.3611 150.958 96.726 151.101 96.0039ZM156.692 92.5145L153.505 91.8803L152.662 96.1186C152.537 96.7465 152.569 97.2372 152.76 97.5906C152.959 97.9567 153.341 98.1959 153.907 98.3084C154.461 98.4188 154.89 98.3409 155.193 98.0749C155.505 97.8214 155.723 97.3807 155.848 96.7528L156.692 92.5145ZM160.977 93.3674L158.089 92.7925L157.298 96.764C157.18 97.3605 157.206 97.8282 157.378 98.167C157.56 98.5079 157.898 98.7273 158.389 98.8252C158.881 98.9231 159.27 98.8537 159.557 98.617C159.854 98.3823 160.061 97.972 160.177 97.3859L160.977 93.3674Z" fill="#CBFD7B"/>
<path d="M149.412 102.729L150.016 101.11L160.063 104.861L158.114 110.079C157.831 110.838 157.471 111.45 157.036 111.914C156.597 112.388 156.104 112.688 155.555 112.814C155.004 112.949 154.413 112.9 153.783 112.664C153.223 112.455 152.788 112.156 152.478 111.767C152.164 111.388 151.976 110.93 151.914 110.395C151.848 109.869 151.913 109.284 152.108 108.639L152.003 108.6C151.758 108.952 151.481 109.191 151.173 109.315C150.871 109.453 150.526 109.552 150.139 109.612L146.618 110.211L147.312 108.352L150.685 107.783C151.011 107.734 151.288 107.649 151.515 107.529C151.748 107.423 151.948 107.253 152.115 107.019C152.292 106.789 152.461 106.459 152.622 106.029L153.31 104.185L149.412 102.729ZM158.004 105.937L154.555 104.649L153.217 108.233C152.967 108.903 152.908 109.456 153.041 109.893C153.174 110.33 153.556 110.666 154.185 110.901C154.795 111.129 155.298 111.123 155.695 110.884C156.092 110.645 156.415 110.19 156.665 109.521L158.004 105.937Z" fill="#CBFD7B"/>
<path d="M145.075 113.273L145.927 111.769L155.256 117.058L154.404 118.561L145.075 113.273ZM141.696 119.232L145.667 112.229L147.017 112.994L143.047 119.998L141.696 119.232ZM145.839 121.305L149.691 114.51L151.027 115.268L147.175 122.062L145.839 121.305ZM149.675 123.755L153.645 116.752L154.996 117.517L151.025 124.521L149.675 123.755Z" fill="#CBFD7B"/>
<path d="M139.918 121.992L141.129 120.502L146.434 130.978L144.9 132.866L133.559 129.818L134.791 128.303L142.821 130.476L144.395 130.95L144.475 130.851L143.689 129.407L139.918 121.992ZM137.285 129.649L141.797 124.096L143.002 125.075L138.49 130.628L137.285 129.649Z" fill="#CBFD7B"/>
<path d="M124.957 137.507L126.496 136.155L131.774 137.484L134.6 135.003L135.699 136.253L132.897 138.714L133.56 144.224L132.02 145.575L131.339 139.123L124.957 137.507ZM131.283 131.952L132.582 130.811L139.657 138.869L138.358 140.01L131.283 131.952Z" fill="#CBFD7B"/>
<path d="M122.262 139.248L123.677 138.256L129.834 147.035L128.419 148.028L122.262 139.248Z" fill="#CBFD7B"/>
<path d="M119.014 141.488L120.535 140.667L125.629 150.104L123.995 150.986L116.79 147.746L114.614 146.646L114.501 146.707L115.492 148.373L118.502 153.951L116.981 154.772L111.887 145.335L113.521 144.453L120.747 147.665L122.828 148.688L122.94 148.627L122.002 147.024L119.014 141.488Z" fill="#CBFD7B"/>
<path d="M105.282 147.711C106.274 147.38 107.215 147.302 108.106 147.478C109 147.663 109.785 148.076 110.46 148.717C111.138 149.369 111.654 150.226 112.009 151.288C112.363 152.351 112.447 153.347 112.262 154.275C112.08 155.213 111.655 156.029 110.987 156.724C110.322 157.43 109.448 157.963 108.365 158.324C107.403 158.645 106.506 158.77 105.672 158.699C104.832 158.641 104.11 158.399 103.506 157.97C102.902 157.542 102.468 156.933 102.205 156.143L102.165 156.022L103.971 155.419L104.012 155.541C104.255 156.269 104.697 156.735 105.338 156.937C105.983 157.15 106.831 157.081 107.884 156.73C108.704 156.456 109.338 156.099 109.787 155.657C110.229 155.228 110.492 154.702 110.576 154.077C110.661 153.453 110.561 152.716 110.278 151.866C109.997 151.025 109.64 150.374 109.204 149.912C108.762 149.463 108.239 149.193 107.635 149.102C107.025 149.025 106.319 149.119 105.52 149.386C104.71 149.656 104.082 149.949 103.637 150.267C103.195 150.594 102.922 150.972 102.817 151.4C102.702 151.832 102.74 152.332 102.929 152.899L103.04 153.233L101.4 153.729L101.319 153.486L102.119 151.38L102.362 151.299C102.338 150.756 102.434 150.252 102.65 149.786C102.856 149.324 103.181 148.917 103.627 148.566C104.062 148.218 104.614 147.933 105.282 147.711ZM100.033 149.629L101.521 149.133L102.382 151.714L102.589 151.881L103.323 154.083L101.699 154.625L100.033 149.629ZM101.349 153.577L106.74 151.78L107.155 153.025L101.765 154.822L101.349 153.577Z" fill="#CBFD7B"/>
<path d="M88.3785 151.486L92.6859 151.138L92.8109 152.685L88.5035 153.033C87.6739 153.1 87.0084 153.277 86.5071 153.564C85.9959 153.862 85.635 154.298 85.4245 154.872C85.2148 155.456 85.1469 156.206 85.2208 157.12C85.2955 158.046 85.4829 158.775 85.7828 159.307C86.0828 159.839 86.5085 160.206 87.0601 160.408C87.6018 160.621 88.2875 160.694 89.1171 160.627L93.4245 160.279L93.5495 161.827L89.2421 162.175C88.1254 162.265 87.1505 162.124 86.3176 161.753C85.475 161.393 84.8034 160.831 84.3029 160.069C83.7917 159.307 83.4915 158.373 83.4021 157.267C83.3127 156.161 83.4591 155.191 83.8414 154.358C84.213 153.525 84.7853 152.857 85.5584 152.356C86.3217 151.866 87.2617 151.576 88.3785 151.486ZM91.5372 151.231L93.2443 151.093L94.1079 161.782L92.4009 161.92L91.5372 151.231Z" fill="#CBFD7B"/>
<path d="M76.1972 151.323C77.3128 151.426 78.2697 151.74 79.0677 152.264C79.8542 152.798 80.4433 153.495 80.8351 154.356C81.2152 155.227 81.3537 156.221 81.2504 157.336C81.1472 158.452 80.8293 159.398 80.2967 160.174C79.7525 160.959 79.0454 161.536 78.1753 161.906C77.2937 162.285 76.295 162.423 75.1794 162.32C74.0426 162.215 73.0809 161.895 72.2944 161.362C71.507 160.839 70.9232 160.142 70.5431 159.271C70.1513 158.409 70.007 157.421 70.1103 156.305C70.2135 155.19 70.5373 154.239 71.0815 153.454C71.614 152.678 72.3159 152.1 73.1869 151.72C74.0569 151.35 75.0604 151.218 76.1972 151.323ZM76.0438 152.981C75.2044 152.903 74.4962 152.971 73.9192 153.186C73.3305 153.41 72.8719 153.791 72.5436 154.328C72.2142 154.877 72.0087 155.592 71.9271 156.473C71.8445 157.366 71.9153 158.107 72.1394 158.695C72.3635 159.284 72.7449 159.737 73.2834 160.055C73.8103 160.382 74.4935 160.585 75.3328 160.662C76.1722 160.74 76.8862 160.667 77.4749 160.443C78.052 160.228 78.5047 159.852 78.8331 159.315C79.1508 158.776 79.351 158.061 79.4336 157.168C79.5152 156.286 79.4498 155.546 79.2372 154.948C79.0131 154.359 78.6376 153.901 78.1107 153.574C77.5721 153.256 76.8832 153.058 76.0438 152.981Z" fill="#CBFD7B"/>
<path d="M64.1623 149.474L66.5905 150.236L66.084 161.316L64.2514 160.741L64.6179 153.744L64.84 151.431L64.7179 151.393L63.4878 153.389L59.395 159.218L56.9974 158.466L56.8294 151.301L56.9293 148.95L56.8071 148.912L55.6993 150.946L52.141 156.942L50.3389 156.377L56.1142 146.95L58.5423 147.711L58.7358 154.314L58.6601 157.175L58.7976 157.219L60.3545 154.822L64.1623 149.474Z" fill="#CBFD7B"/>
<path d="M51.2255 144.689L52.7356 145.53L47.517 154.898L45.8951 153.994L44.7536 146.177L44.5108 143.751L44.3989 143.689L43.5264 145.42L40.442 150.957L38.9319 150.115L44.1505 140.747L45.7724 141.651L46.9496 149.47L47.205 151.774L47.3169 151.837L48.1645 150.184L51.2255 144.689Z" fill="#CBFD7B"/>
<path d="M33.964 132.629L38.558 136.831L31.3201 144.744L26.8915 140.692C26.3797 140.224 26.0151 139.753 25.7976 139.28C25.5723 138.799 25.4984 138.326 25.5759 137.862C25.6455 137.391 25.8712 136.947 26.2529 136.529C26.6778 136.065 27.1757 135.797 27.7465 135.726C28.3095 135.648 28.9265 135.851 29.5976 136.335L29.6732 136.252C29.0681 135.554 28.7587 134.881 28.7449 134.232C28.7239 133.591 28.9511 133.011 29.4264 132.491C29.8369 132.042 30.2918 131.742 30.7911 131.592C31.2904 131.441 31.8082 131.452 32.3446 131.625C32.881 131.797 33.4208 132.132 33.964 132.629ZM34.0535 139.218L36.2465 136.821L33.0579 133.904C32.5855 133.472 32.1487 133.246 31.7475 133.226C31.3313 133.207 30.9287 133.41 30.5398 133.835C30.1581 134.252 30.0025 134.659 30.0731 135.056C30.1286 135.454 30.3925 135.869 30.8649 136.301L34.0535 139.218ZM31.1044 142.442L33.0921 140.269L30.1042 137.536C29.6554 137.125 29.2416 136.906 28.8627 136.878C28.4766 136.857 28.1143 137.032 27.7758 137.402C27.4373 137.772 27.2952 138.141 27.3493 138.508C27.3962 138.884 27.6401 139.273 28.081 139.677L31.1044 142.442Z" fill="#CBFD7B"/>
<path d="M29.4592 128.211L30.635 129.73L19.226 132.51L17.7367 130.587L23.2863 120.238L24.4817 121.782L20.5377 129.106L19.7175 130.531L19.7959 130.632L21.3803 130.195L29.4592 128.211ZM22.6029 123.904L26.9828 129.561L25.7552 130.512L21.3753 124.855L22.6029 123.904Z" fill="#CBFD7B"/>
<path d="M21.7326 117.564L22.5481 119.088L13.0929 124.147L10.4652 119.236C10.0826 118.521 9.86103 117.847 9.80055 117.214C9.73503 116.571 9.83626 116.003 10.1042 115.509C10.3672 115.005 10.795 114.594 11.3877 114.277C11.9146 113.995 12.4266 113.867 12.9237 113.891C13.4158 113.906 13.8833 114.067 14.3262 114.375C14.7641 114.673 15.1605 115.108 15.5152 115.681L15.614 115.628C15.5118 115.211 15.516 114.846 15.6267 114.532C15.7229 114.215 15.8762 113.89 16.0867 113.56L17.9646 110.522L18.9009 112.272L17.0981 115.179C16.9196 115.456 16.8004 115.719 16.7405 115.969C16.6661 116.215 16.6615 116.478 16.7265 116.757C16.7821 117.042 16.9182 117.387 17.1346 117.792L18.0634 119.527L21.7326 117.564ZM13.6463 121.891L16.8921 120.154L15.0874 116.781C14.7501 116.151 14.3736 115.741 13.9578 115.552C13.5421 115.363 13.0378 115.427 12.4451 115.744C11.8712 116.052 11.5428 116.433 11.46 116.889C11.3771 117.345 11.5043 117.888 11.8416 118.518L13.6463 121.891Z" fill="#CBFD7B"/>
<path d="M16.6844 107.387L17.2433 109.023L7.09573 112.49L5.29482 107.22C5.03262 106.452 4.92276 105.751 4.96524 105.117C5.00427 104.472 5.1959 103.927 5.54012 103.483C5.88089 103.028 6.36934 102.692 7.00546 102.474C7.5709 102.281 8.09696 102.237 8.58364 102.341C9.06688 102.435 9.50224 102.67 9.88973 103.045C10.2738 103.41 10.5946 103.904 10.8524 104.526L10.9584 104.49C10.9248 104.061 10.9879 103.702 11.1477 103.41C11.2939 103.112 11.4976 102.817 11.7586 102.525L14.1021 99.8297L14.7438 101.708L12.4956 104.286C12.2747 104.53 12.1145 104.771 12.0151 105.008C11.9021 105.238 11.8551 105.497 11.8741 105.784C11.883 106.074 11.9617 106.436 12.11 106.87L12.7466 108.733L16.6844 107.387ZM8.00596 110.353L11.4895 109.162L10.2526 105.543C10.0215 104.866 9.71599 104.401 9.33617 104.147C8.95634 103.894 8.44837 103.876 7.81225 104.093C7.19632 104.304 6.8107 104.627 6.65538 105.063C6.50006 105.5 6.53797 106.056 6.76913 106.733L8.00596 110.353Z" fill="#CBFD7B"/>
<path d="M13.4033 96.3942L13.782 98.0808L3.31887 100.43L2.94017 98.7435L13.4033 96.3942Z" fill="#CBFD7B"/>
<path d="M12.5753 92.4054L12.767 94.1233L2.10952 95.3125L1.91782 93.5946L12.5753 92.4054ZM11.8156 85.5973L12.7084 93.5984L11.1655 93.7705L10.2727 85.7695L11.8156 85.5973ZM7.24521 86.3489L8.11139 94.1113L6.58435 94.2817L5.71817 86.5193L7.24521 86.3489ZM2.70109 86.6144L3.59389 94.6154L2.05094 94.7876L1.15814 86.7865L2.70109 86.6144Z" fill="#CBFD7B"/>
<path d="M11.6987 81.9576L11.6258 83.6847L0.911729 83.2326L1.14651 77.6677C1.18069 76.8575 1.33275 76.1644 1.60268 75.5884C1.87307 75.0017 2.24932 74.5637 2.73144 74.2743C3.214 73.9743 3.7911 73.8385 4.46273 73.8668C5.05973 73.892 5.56605 74.0415 5.98169 74.3154C6.39778 74.5785 6.7183 74.9552 6.94326 75.4452C7.16867 75.9247 7.28853 76.5011 7.30283 77.1745L7.41477 77.1792C7.53892 76.768 7.72832 76.4556 7.98296 76.242C8.22739 76.0174 8.52423 75.8163 8.87347 75.6388L12.0353 73.978L11.9517 75.9609L8.92111 77.5472C8.62653 77.6949 8.3899 77.8612 8.21123 78.0459C8.02235 78.2195 7.88475 78.4433 7.79843 78.7173C7.70145 78.9909 7.64329 79.3569 7.62395 79.8153L7.54097 81.7822L11.6987 81.9576ZM2.53573 81.571L6.2137 81.7262L6.37494 77.9043C6.40508 77.19 6.2892 76.6458 6.02731 76.2717C5.76542 75.8975 5.29867 75.6963 4.62704 75.6679C3.97673 75.6405 3.50001 75.8019 3.19688 76.1523C2.89374 76.5026 2.72711 77.0349 2.69697 77.7491L2.53573 81.571Z" fill="#CBFD7B"/>
<path d="M13.33 67.4421C13.1159 68.4765 12.789 69.3187 12.3493 69.9687C11.9118 70.6081 11.3898 71.0503 10.7834 71.2953C10.1665 71.538 9.49235 71.5837 8.76094 71.4323L8.6669 71.4128L9.01736 69.7201L9.26813 69.772C9.68608 69.8586 10.0556 69.837 10.3766 69.7073C10.6872 69.5755 10.9611 69.3053 11.1983 68.8968C11.4249 68.486 11.6183 67.8941 11.7784 67.1209C11.9169 66.4522 11.9802 65.9095 11.9684 65.493C11.9461 65.0743 11.8478 64.7598 11.6734 64.5493C11.4907 64.3263 11.2375 64.1812 10.9136 64.1142C10.4538 64.019 10.0892 64.096 9.81963 64.3453C9.55009 64.5946 9.28448 65.0354 9.0228 65.6677L8.06745 68.1505C7.83137 68.7118 7.55602 69.1996 7.24141 69.6139C6.91636 70.0261 6.53871 70.3238 6.10848 70.5072C5.66996 70.6779 5.16336 70.7038 4.58868 70.5848C4.21253 70.5069 3.85891 70.3465 3.52782 70.1036C3.19673 69.8607 2.92168 69.5314 2.70267 69.1155C2.48366 68.6997 2.34898 68.1924 2.29862 67.5935C2.23997 66.9821 2.2961 66.2636 2.46701 65.4382C2.67902 64.4142 3.00989 63.6055 3.45964 63.0122C3.90939 62.4188 4.43838 62.0216 5.04661 61.8207C5.64656 61.6071 6.29134 61.5717 6.98095 61.7145L7.07499 61.7339L6.72777 63.411L6.52402 63.3688C6.09563 63.2801 5.7209 63.3006 5.39985 63.4302C5.06835 63.5577 4.79033 63.8216 4.5658 64.2219C4.33082 64.62 4.13762 65.1847 3.98618 65.9162C3.85422 66.5535 3.79938 67.0815 3.82166 67.5002C3.8461 67.9085 3.94442 68.223 4.11662 68.4439C4.27837 68.6627 4.52119 68.8056 4.8451 68.8726C5.13767 68.9332 5.39096 68.9203 5.605 68.8338C5.81904 68.7474 6.01056 68.5854 6.17958 68.348C6.33815 68.1084 6.50664 67.7946 6.68505 67.4066L7.65283 64.9428C7.92316 64.2687 8.2313 63.7277 8.57725 63.3199C8.92537 62.9016 9.31652 62.6176 9.75072 62.4677C10.1849 62.3179 10.658 62.296 11.17 62.402C11.7029 62.5123 12.173 62.7677 12.5805 63.168C12.9879 63.5684 13.2709 64.1228 13.4293 64.8312C13.5773 65.5374 13.5442 66.4077 13.33 67.4421Z" fill="#CBFD7B"/>
<path d="M16.8248 54.7877L16.0953 56.3195L14.3345 54.4705L13.4123 56.4068L12.0251 55.7462L13.2156 53.2463L11.2503 51.1935L10.1562 53.4912L8.76892 52.8306L10.1246 49.9838L8.20268 47.9517L8.93212 46.42L10.854 48.452L12.1065 45.8221L10.1846 43.79L10.914 42.2582L12.8359 44.2903L13.8062 42.2528L15.1934 42.9134L13.9548 45.5145L15.92 47.5672L17.0555 45.1829L18.4427 45.8435L17.0458 48.7769L18.7998 50.6404L18.0703 52.1722L16.3163 50.3087L15.0639 52.9387L16.8248 54.7877ZM11.9302 49.6914L13.9395 51.8005L15.2401 49.0694L13.2308 46.9602L11.9302 49.6914Z" fill="#CBFD7B"/>
<path d="M28.5421 35.7035L24.5631 40.4923L16.3151 33.639L20.1509 29.0226C20.5942 28.4891 21.0472 28.1025 21.51 27.8628C21.9796 27.6148 22.4481 27.5185 22.9154 27.5739C23.3895 27.621 23.8441 27.8253 24.2791 28.1867C24.7633 28.5891 25.0543 29.0736 25.1521 29.6405C25.2567 30.1991 25.0834 30.825 24.6322 31.5183L24.7184 31.59C25.3869 30.9523 26.0449 30.6112 26.6924 30.5666C27.3317 30.5151 27.9222 30.7144 28.4639 31.1645C28.9316 31.5532 29.2526 31.9933 29.4269 32.4849C29.6011 32.9765 29.6148 33.4942 29.468 34.0382C29.3212 34.5822 29.0126 35.1373 28.5421 35.7035ZM21.9644 36.1064L24.4634 38.1829L27.2252 34.8591C27.6344 34.3667 27.8393 33.9196 27.8401 33.518C27.8395 33.1013 27.6177 32.7088 27.1745 32.3406C26.7395 31.9792 26.3254 31.8431 25.932 31.9325C25.5373 32.0068 25.1354 32.2902 24.7262 32.7826L21.9644 36.1064ZM18.6037 33.3139L20.8688 35.196L23.4567 32.0815C23.8454 31.6137 24.045 31.1899 24.0553 30.8101C24.0575 30.4235 23.8657 30.0699 23.48 29.7494C23.0943 29.4289 22.7191 29.3044 22.3544 29.376C21.9816 29.4407 21.6042 29.7029 21.2223 30.1625L18.6037 33.3139Z" fill="#CBFD7B"/>
<path d="M33.2369 30.5863L31.9339 31.7222L24.8874 23.6387L29.086 19.9787C29.6973 19.4459 30.3048 19.0791 30.9084 18.8785C31.5201 18.6708 32.0968 18.6423 32.6386 18.7929C33.1884 18.9364 33.6842 19.2616 34.1259 19.7683C34.5185 20.2187 34.7586 20.689 34.846 21.179C34.9414 21.662 34.8888 22.1537 34.6881 22.6542C34.4955 23.1477 34.1598 23.6314 33.6811 24.1053L33.7548 24.1898C34.1386 23.9967 34.4956 23.9191 34.8257 23.9569C35.1569 23.9796 35.5071 24.0565 35.8762 24.1877L39.2573 25.3383L37.7613 26.6424L34.5247 25.5357C34.2147 25.4237 33.9312 25.3665 33.6743 25.364C33.4183 25.3465 33.1613 25.4007 32.9031 25.5267C32.6379 25.6446 32.3323 25.8544 31.9865 26.1559L30.5025 27.4495L33.2369 30.5863ZM27.2106 23.6731L29.6295 26.4481L32.5131 23.9345C33.052 23.4647 33.367 23.0061 33.4582 22.5586C33.5494 22.1111 33.3741 21.6339 32.9324 21.1272C32.5047 20.6366 32.0594 20.4019 31.5967 20.4231C31.1339 20.4443 30.633 20.6898 30.0941 21.1595L27.2106 23.6731Z" fill="#CBFD7B"/>
<path d="M41.6904 23.6184L40.2298 24.5429L34.4947 15.4817L35.9553 14.5572L41.6904 23.6184ZM47.4788 19.9548L40.6761 24.2604L39.8458 22.9485L46.6485 18.6429L47.4788 19.9548ZM44.8021 16.1747L38.2023 20.3519L37.3806 19.0536L43.9804 14.8764L44.8021 16.1747ZM42.574 12.2055L35.7713 16.511L34.941 15.1992L41.7437 10.8936L42.574 12.2055Z" fill="#CBFD7B"/>
<path d="M50.2437 18.3574L48.4743 19.1045L48.7116 7.36395L50.9528 6.41759L59.5329 14.435L57.7341 15.1946L51.6655 9.50452L50.499 8.34657L50.3811 8.39638L50.3975 10.04L50.2437 18.3574ZM56.1642 12.8345L49.5732 15.6175L48.9693 14.1873L55.5602 11.4042L56.1642 12.8345Z" fill="#CBFD7B"/>
<path d="M70.824 11.6416L68.8285 12.1054L64.805 8.43966L61.1414 9.29125L60.7645 7.66991L64.397 6.82557L66.4161 1.65664L68.4116 1.19279L65.9631 7.20097L70.824 11.6416ZM62.6238 13.5477L60.9401 13.939L58.5121 3.4939L60.1958 3.10253L62.6238 13.5477Z" fill="#CBFD7B"/>
<path d="M74.3411 11.3164L72.6239 11.5147L71.3941 0.861806L73.1113 0.663574L74.3411 11.3164Z" fill="#CBFD7B"/>
<path d="M78.2128 10.8856L76.4842 10.8858L76.4825 0.162228L78.3391 0.161924L83.1417 6.43525L84.5345 8.4357L84.6626 8.43568L84.5822 6.49904L84.5812 0.160901L86.3098 0.160619L86.3115 10.8842L84.4549 10.8845L79.6203 4.62722L78.2755 2.7388L78.1475 2.73882L78.2118 4.59544L78.2128 10.8856Z" fill="#CBFD7B"/>
<path d="M93.2461 11.9125C92.2161 11.7322 91.3508 11.3532 90.6503 10.7756C89.9517 10.1875 89.4578 9.45105 89.1685 8.5663C88.8811 7.67104 88.8341 6.67162 89.0273 5.56803C89.2205 4.46444 89.6192 3.54848 90.2234 2.82015C90.8294 2.08131 91.5914 1.56479 92.5095 1.27057C93.4295 0.965842 94.4518 0.911931 95.5764 1.10884C96.5749 1.28366 97.424 1.60023 98.1237 2.05855C98.8357 2.5082 99.3557 3.06504 99.6835 3.72907C100.011 4.3931 100.104 5.13502 99.96 5.95483L99.938 6.08095L98.0619 5.75247L98.0839 5.62635C98.2164 4.8696 98.0487 4.24986 97.5808 3.76712C97.1147 3.27388 96.3351 2.93156 95.242 2.74017C94.3907 2.59111 93.6626 2.60445 93.0577 2.78019C92.4651 2.94726 91.9834 3.28539 91.6126 3.7946C91.2418 4.3038 90.9791 4.99984 90.8246 5.88271C90.6718 6.75507 90.6771 7.49803 90.8405 8.1116C91.0163 8.7165 91.3482 9.20251 91.8364 9.56963C92.3369 9.92808 93.0024 10.18 93.8327 10.3254C94.6735 10.4726 95.3652 10.5125 95.9078 10.445C96.4523 10.367 96.8724 10.1643 97.168 9.83692C97.4741 9.51138 97.6787 9.05432 97.7818 8.46574L97.8425 8.1189L99.5211 8.46156L99.477 8.7138L97.773 10.1866L97.5207 10.1424C97.2834 10.6317 96.9591 11.0298 96.5479 11.337C96.1471 11.646 95.6674 11.849 95.1088 11.9462C94.5607 12.0452 93.9398 12.034 93.2461 11.9125ZM98.7759 12.7183L97.2308 12.4477L97.7001 9.7676L97.5968 9.52203L97.9971 7.23603L99.684 7.53139L98.7759 12.7183ZM99.4936 8.61921L93.8968 7.63928L94.1231 6.34651L99.7199 7.32643L99.4936 8.61921Z" fill="#CBFD7B"/>
<path d="M109.795 16.4894L105.839 14.75L106.464 13.3288L110.42 15.0682C111.182 15.4031 111.851 15.5635 112.429 15.5493C113.02 15.5296 113.545 15.3174 114.002 14.9125C114.464 14.4979 114.88 13.8706 115.25 13.0305C115.623 12.1807 115.804 11.4503 115.793 10.8393C115.782 10.2283 115.582 9.70315 115.192 9.26375C114.817 8.81888 114.248 8.42895 113.486 8.09396L109.53 6.35458L110.155 4.93337L114.111 6.67275C115.137 7.1237 115.928 7.71046 116.484 8.43305C117.055 9.15016 117.379 9.96305 117.458 10.8717C117.546 11.7847 117.366 12.7491 116.92 13.7649C116.473 14.7808 115.884 15.5648 115.151 16.117C114.429 16.6735 113.608 16.9888 112.69 17.0629C111.785 17.1315 110.82 16.9403 109.795 16.4894ZM106.894 15.2138L105.326 14.5245L109.642 4.7079L111.21 5.3972L106.894 15.2138Z" fill="#CBFD7B"/>
<path d="M120.593 22.4328C119.662 21.8093 118.971 21.0769 118.52 20.2355C118.084 19.3911 117.9 18.497 117.967 17.5531C118.049 16.6062 118.401 15.6674 119.025 14.7365C119.648 13.8056 120.379 13.1265 121.217 12.6991C122.071 12.2689 122.968 12.0991 123.909 12.1899C124.864 12.2778 125.808 12.6334 126.739 13.2569C127.687 13.8922 128.38 14.632 128.816 15.4764C129.258 16.3119 129.438 17.203 129.356 18.1499C129.289 19.0938 128.944 20.0312 128.32 20.9621C127.697 21.893 126.959 22.5735 126.105 23.0038C125.267 23.4311 124.374 23.6038 123.427 23.5219C122.487 23.4312 121.542 23.0681 120.593 22.4328ZM121.519 21.0497C122.22 21.5188 122.875 21.7969 123.484 21.884C124.108 21.9682 124.693 21.8526 125.238 21.5371C125.789 21.2127 126.311 20.6826 126.804 19.9467C127.303 19.202 127.595 18.5175 127.679 17.8933C127.763 17.269 127.644 16.6887 127.323 16.1524C127.016 15.6131 126.513 15.109 125.812 14.6399C125.112 14.1708 124.45 13.8942 123.825 13.81C123.216 13.7229 122.639 13.8371 122.093 14.1526C121.557 14.474 121.039 15.0071 120.541 15.7518C120.048 16.4877 119.752 17.1692 119.653 17.7964C119.569 18.4206 119.68 19.0024 119.987 19.5416C120.308 20.078 120.819 20.5807 121.519 21.0497Z" fill="#CBFD7B"/>
<path d="M130.296 29.7406L128.522 27.9163L134.234 18.4086L135.573 19.7854L131.925 25.7677L130.63 27.6965L130.719 27.7883L132.75 26.6167L139.122 23.434L140.874 25.2353L137.616 31.6191L136.411 33.6397L136.5 33.7315L138.442 32.4681L144.422 28.8838L145.739 30.2376L136.177 35.787L134.403 33.9628L137.371 28.0616L138.798 25.58L138.697 25.4767L136.188 26.8455L130.296 29.7406Z" fill="#CBFD7B"/>
<path d="M139.299 39.8782L138.364 38.4244L147.383 32.6235L148.388 34.185L145.708 41.6174L144.779 43.8708L144.848 43.9785L146.434 42.8636L151.764 39.435L152.699 40.8888L143.68 46.6897L142.676 45.1282L145.325 37.6775L146.186 35.5251L146.116 35.4174L144.59 36.4756L139.299 39.8782Z" fill="#CBFD7B"/>
<path d="M148.996 58.8873L146.94 53.0108L157.061 49.4683L159.044 55.1333C159.273 55.788 159.371 56.3754 159.339 56.8955C159.309 57.4258 159.151 57.877 158.863 58.2491C158.578 58.6313 158.169 58.9158 157.635 59.1026C157.041 59.3106 156.476 59.3106 155.94 59.1026C155.407 58.9047 154.959 58.4339 154.597 57.6901L154.492 57.7272C154.694 58.6285 154.648 59.3683 154.353 59.9463C154.068 60.5209 153.593 60.9245 152.928 61.1572C152.354 61.3581 151.811 61.4067 151.3 61.3029C150.789 61.1992 150.338 60.9444 149.947 60.5385C149.557 60.1327 149.24 59.5823 148.996 58.8873ZM152.037 53.041L148.971 54.1143L150.398 58.1932C150.61 58.7975 150.888 59.2033 151.232 59.4108C151.589 59.6248 152.04 59.6367 152.584 59.4463C153.117 59.2595 153.447 58.9745 153.573 58.5913C153.713 58.2146 153.677 57.7241 153.465 57.1199L152.037 53.041ZM156.162 51.5976L153.382 52.5704L154.72 56.3925C154.921 56.9665 155.181 57.3558 155.501 57.5602C155.832 57.7612 156.234 57.7788 156.707 57.6131C157.18 57.4474 157.48 57.1899 157.607 56.8404C157.743 56.4874 157.713 56.0289 157.515 55.4649L156.162 51.5976Z" fill="#CBFD7B"/>
<path d="M150.848 64.7069L150.527 62.8133L161.9 65.7377L162.307 68.1363L152.535 74.6482L152.208 72.7231L159.139 68.1218L160.533 67.2521L160.512 67.1258L158.908 66.7648L150.848 64.7069ZM154.865 71.7365L153.669 64.6829L155.199 64.4232L156.396 71.4768L154.865 71.7365Z" fill="#CBFD7B"/>
<path d="M152.66 77.9156L152.666 76.1871L163.39 76.2265L163.369 81.7964C163.366 82.6073 163.241 83.3057 162.993 83.8917C162.746 84.4883 162.386 84.9405 161.916 85.2482C161.445 85.5666 160.874 85.7245 160.202 85.7221C159.604 85.7199 159.092 85.5899 158.666 85.3323C158.241 85.0853 157.906 84.7213 157.662 84.2402C157.418 83.7698 157.276 83.1984 157.236 82.5261L157.124 82.5256C157.016 82.9414 156.839 83.2608 156.593 83.484C156.357 83.7179 156.068 83.9302 155.726 84.121L152.63 85.9023L152.638 83.9176L155.605 82.2159C155.894 82.0569 156.124 81.8817 156.295 81.6903C156.477 81.5096 156.606 81.2806 156.682 81.0035C156.768 80.7264 156.812 80.3584 156.814 79.8996L156.821 77.9309L152.66 77.9156ZM161.831 77.9494L158.149 77.9358L158.135 81.7611C158.133 82.476 158.269 83.0153 158.546 83.3792C158.822 83.743 159.296 83.9261 159.968 83.9286C160.619 83.931 161.089 83.7513 161.379 83.3896C161.668 83.0279 161.814 82.4895 161.817 81.7746L161.831 77.9494Z" fill="#CBFD7B"/>
</svg>
