<svg width="18" height="18" viewBox="0 0 18 18" fill="none" xmlns="http://www.w3.org/2000/svg">
<path d="M0.93934 14.9396C0.353553 15.5254 0.353553 16.4751 0.93934 17.0609C1.52513 17.6467 2.47487 17.6467 3.06066 17.0609L0.93934 14.9396ZM17.5 2.00024C17.5 1.17182 16.8284 0.500244 16 0.500243L2.5 0.500244C1.67157 0.500244 1 1.17182 1 2.00024C1 2.82867 1.67157 3.50024 2.5 3.50024H14.5V15.5002C14.5 16.3287 15.1716 17.0002 16 17.0002C16.8284 17.0002 17.5 16.3287 17.5 15.5002L17.5 2.00024ZM3.06066 17.0609L17.0607 3.0609L14.9393 0.939584L0.93934 14.9396L3.06066 17.0609Z" fill="#2C2F33"/>
</svg>
