<svg width="86" height="80" viewBox="0 0 86 80" fill="none" xmlns="http://www.w3.org/2000/svg">
<rect width="86" height="80" rx="20" fill="white"/>
<path d="M47.104 40.594C50.1387 41.4812 52.8041 43.328 54.7009 45.8576C56.5977 48.3871 57.6236 51.4633 57.625 54.625H28.375C28.3756 51.4631 29.4013 48.3866 31.2982 45.8569C33.1951 43.3272 35.8609 41.4806 38.896 40.594L43 46.75L47.104 40.594ZM50.3125 32.6875C50.3125 34.6269 49.5421 36.4869 48.1707 37.8582C46.7994 39.2296 44.9394 40 43 40C41.0606 40 39.2006 39.2296 37.8293 37.8582C36.4579 36.4869 35.6875 34.6269 35.6875 32.6875C35.6875 30.7481 36.4579 28.8881 37.8293 27.5168C39.2006 26.1454 41.0606 25.375 43 25.375C44.9394 25.375 46.7994 26.1454 48.1707 27.5168C49.5421 28.8881 50.3125 30.7481 50.3125 32.6875Z" fill="#A1A1A1"/>
</svg>
