<svg width="33" height="23" viewBox="0 0 33 23" fill="none" xmlns="http://www.w3.org/2000/svg">
<path d="M1.5 10C0.671573 10 7.24234e-08 10.6716 0 11.5C-7.24234e-08 12.3284 0.671573 13 1.5 13L1.5 10ZM32.5607 12.5607C33.1464 11.9749 33.1464 11.0251 32.5607 10.4393L23.0147 0.8934C22.4289 0.307613 21.4792 0.307613 20.8934 0.8934C20.3076 1.47919 20.3076 2.42893 20.8934 3.01472L29.3787 11.5L20.8934 19.9853C20.3076 20.5711 20.3076 21.5208 20.8934 22.1066C21.4792 22.6924 22.4289 22.6924 23.0147 22.1066L32.5607 12.5607ZM1.5 13L31.5 13L31.5 10L1.5 10L1.5 13Z" fill="#2C2F33"/>
</svg>
